<svg version="1" xmlns="http://www.w3.org/2000/svg" width="1544" height="1544" viewBox="0 0 1158.000000 1158.000000"><path d="M329.2 294.6c-.7.8-1 1.4-.6 1.4s0 .8-.8 1.7c-.8 1-6 9.6-11.4 19.1-5.4 9.5-10.7 18.7-11.8 20.5-1 1.7-3 5.3-4.5 7.9-1.4 2.6-7.8 13.6-14.1 24.4-6.3 10.9-12.9 22.3-14.6 25.3-1.7 3.1-6.1 10.7-9.8 16.9-3.6 6.2-6.6 11.5-6.6 11.7 0 .2-1.2 2.1-2.6 4.2-1.4 2.1-3.4 5.6-4.5 7.8-2 4.1-4 7.6-4.9 8.5-.3.3-1.2 1.8-2 3.5-.8 1.6-1.9 3.7-2.6 4.5-1 1.4-3.6 5.9-9 16-1.1 1.9-2.1 3.7-2.4 4-.5.5-1.4 2.1-5.8 9.9-1.4 2.5-2.8 4.8-3.1 5.1-.3.3-1.5 2.3-2.7 4.5-1.8 3.4-5.3 9.6-15.4 27-.9 1.6-6 10.4-11.2 19.5-17.8 30.9-22.8 39.5-23.8 41-.6.8-1.3 2.2-1.7 3-.4.8-2.6 4.8-5 8.8-2.4 4-4.3 7.7-4.3 8.2 0 .6-.4 1-.8 1s-1.3 1.2-2 2.7c-.6 1.6-2.1 4.3-3.2 6.2-2.3 3.7-15.7 26.8-19.8 34.1-1.4 2.5-4 6.9-5.8 9.7-1.9 2.9-3.1 5.3-2.7 5.3.3 0-.1.8-.9 1.7-1.3 1.6-3.2 4.8-12.5 21.3-1.1 1.9-4.9 8.5-8.5 14.6-3.6 6.1-6.8 11.7-7.2 12.5-.4.8-1.2 2.3-1.9 3.4-5.1 8.6-10.7 18.6-10.6 19.1 0 .4-.3 1-.8 1.3-.8.5-2.2 2.8-8.1 13.1-1.1 1.9-5.2 9.1-9.2 16-4 6.9-8.6 15-10.3 18-1.6 3-3.8 6.7-4.9 8.2-1 1.4-1.8 2.9-1.8 3.2 0 .3-1.5 2.9-3.3 5.8-1.8 2.9-3.9 6.4-4.5 7.8-.7 1.4-2.3 4.2-3.5 6.2-2 3.4-19.9 34.4-25.5 44.2-1.3 2.3-3.3 5.6-4.4 7.3l-2 3.3h190.9l4.9-8.3c2.7-4.5 5.3-9.1 5.9-10.2.6-1.1 4.5-7.9 8.6-15 4.2-7.2 8.2-14.1 9-15.5.8-1.4 1.8-2.8 2.2-3.1.5-.3.7-.8.6-1-.2-.2.4-1.5 1.3-2.9s6.2-10.6 11.8-20.5c5.7-9.9 11.3-19.6 12.5-21.5 1.2-1.9 2.5-4.5 2.9-5.8.4-1.2 1.2-2.2 1.7-2.2s.9-.5.9-1c0-.6 2.1-4.5 4.6-8.8 2.5-4.2 4.9-8.5 5.5-9.5 2.4-4.5 3.4-6.2 4-6.7.3-.3 1.2-1.9 2.1-3.5 2.3-4.6 6.9-12.7 8.8-15.5.9-1.4 2-3.2 2.3-4 .4-.8 1.8-3.3 3.1-5.5 1.4-2.2 3.3-5.6 4.4-7.5 3.4-6.2 20.4-35.4 22.8-39.2 1.3-2.1 2.4-4 2.4-4.3 0-.4 2-4 4.5-8.1 2.5-4 4.5-7.8 4.5-8.4 0-.5.5-1 1-1 .6 0 1-.6 1-1.3 0-1.7 6-10.3 6.8-9.7 1.1.7 10.2 16.9 10.2 18 0 .6.5 1 1 1 .6 0 1 .7 1 1.5s.3 1.5.8 1.5c.4 0 1.3 1.5 2.1 3.2.8 1.8 3.2 6 5.3 9.4 2.1 3.4 3.8 6.4 3.8 6.7 0 .3 2.3 4.2 5 8.7 2.8 4.5 5 8.5 5 8.9 0 .3 2 3.8 4.5 7.6 2.5 3.9 4.5 7.4 4.5 7.9s.6 1.7 1.4 2.5c.8.9 2.7 4 4.2 6.9 1.6 2.9 3.4 6.1 3.9 7 .6.9 3.6 6.2 6.8 11.7 7.1 12.3 6.8 11.8 10.8 18.5 1.7 3 4 6.8 4.9 8.5 3 5.3 9.1 16 10 17.5.5.8 6.4 10.9 13.1 22.5 6.6 11.5 12.5 21.6 13.1 22.2.6.7.7 1.3.3 1.3-.5 0-.1.8.7 1.7.8 1 4.1 6.4 7.3 12.1 3.1 5.6 6.1 10.5 6.6 10.8.5.3.9 1.4.9 2.5 0 1 .5 1.9 1 1.9.6 0 1.3.8 1.7 1.7.3 1 2.4 5 4.7 9l4.1 7.2 95.2.1H660l-1.1-2.7c-.6-1.6-1.6-3.5-2.3-4.3-.7-.8-1.6-2.2-1.9-3-.4-.8-2-3.8-3.7-6.5-1.7-2.8-3.3-5.8-3.7-6.7-.3-1-.9-1.8-1.4-1.8-.5 0-.9-.5-.9-1 0-1.1-9-17.1-10.1-18-.3-.3-.9-1.5-1.3-2.8-.4-1.2-1.2-2.2-1.7-2.2s-.9-.6-.9-1.3c0-1.1-7.5-14.5-11-19.7-.6-.8-1.6-2.7-2.3-4.3-.6-1.5-1.5-2.7-1.9-2.7-.4 0-.8-.5-.8-1.1 0-.6-2-4.5-4.5-8.6-2.5-4-4.5-7.6-4.5-7.9 0-.3-.8-1.8-1.9-3.2-1-1.5-3.1-5.1-4.7-8-1.6-2.9-3.4-6.1-3.9-7-3.1-5.1-27.8-47.8-30.2-52.2-1.1-1.9-5.2-9.1-9.1-15.9-4-6.8-7.2-12.7-7.2-13.1 0-.5-.3-1-.8-1.2-.4-.2-3.2-4.6-6.1-9.8-6.5-11.5-7-12.2-16.1-28-4-6.9-8.4-14.5-9.8-17-1.4-2.5-4.5-7.8-6.9-11.8-2.4-4.1-4.3-7.5-4.3-7.8 0-.2-1.5-2.7-3.3-5.6-1.9-2.9-5.1-8.5-7.2-12.3-2.1-3.9-4.5-8.1-5.5-9.5-.9-1.4-3.6-6-5.9-10.2-2.3-4.3-4.6-8-5.2-8.3-.5-.4-.7-1-.4-1.5.3-.4-.2-1.3-1-2s-1.5-1.9-1.5-2.6c0-.8-.4-1.4-1-1.4-.5 0-1-.5-1-1 0-.6-1.8-4-4-7.6-2.2-3.6-4-6.9-4-7.3 0-.4-.6-1.3-1.2-1.9-.7-.7-1.3-1.6-1.3-2 0-.4-.9-2.1-1.9-3.7-1.1-1.7-3-4.7-4.3-6.7-1.2-2.1-2.3-4-2.3-4.2 0-.3-2.2-4.3-4.9-8.8-2.7-4.6-6.1-10.3-7.5-12.8-1.5-2.5-3.3-6-4.1-7.8-.9-1.7-2-3.2-2.5-3.2-.6 0-1-.7-1-1.5s-2-4.6-4.4-8.4c-2.5-3.8-4.3-7.1-4-7.4.2-.2-.2-1-1.1-1.7-.8-.7-1.5-1.9-1.5-2.6 0-.8-.4-1.4-1-1.4-.5 0-1-.4-1-.9 0-.6-3.8-7.6-8.5-15.6-4.7-8.1-8.5-14.8-8.5-15 0-.2-2.4-4.3-5.4-9.2-2.9-4.8-6.3-10.6-7.5-12.8-1.2-2.2-2.6-4.7-3.1-5.5-.5-.8-3.2-5.3-5.9-10-8.5-14.8-27.3-47.4-29.3-51-1.1-1.9-3.7-6.4-5.8-10-2.1-3.6-4.7-8.1-5.8-10-10.4-18.3-10.7-18.7-12-17.4zM570.5 307.4c-4.4 7.7-8.1 14.6-8.3 15.3-.2.7-.8 1.3-1.3 1.3s-.9.4-.9 1c0 .5-3.9 7.6-8.7 15.7-4.7 8.1-10 17.3-11.6 20.3-1.7 3-3.8 6.6-4.7 8-.9 1.4-2 3.2-2.3 4-.4.8-1.6 2.9-2.6 4.6-2.6 4.2-23.8 40.9-26.9 46.4-1.3 2.5-2.8 4.9-3.2 5.5-.4.5-1.7 2.7-2.9 4.7-2.7 4.9-5 8.8-9.9 17.3-3.5 5.9-3.9 7.2-2.8 8.5.7.8 2.7 4 4.3 7 1.6 3 4.2 7.4 5.6 9.7 1.5 2.4 2.7 4.7 2.7 5.3 0 .5.5 1 1.1 1 .5 0 .8.4.4.9-.3.5-.1 1.2.4 1.5.5.3 3.5 5.2 6.6 10.8 3.2 5.7 6.5 11.1 7.3 12 .8 1 1.2 1.8.9 1.8-.3 0 1.2 2.8 3.4 6.2 2.1 3.5 4.4 7.5 5 9 .6 1.6 1.5 2.8 2 2.8s.9.5.9 1.2c0 .6 2.3 4.9 5 9.5 2.8 4.6 5 8.6 5 8.9 0 .3 1.4 2.5 3 4.9 1.7 2.4 3 4.6 3 5 0 .3 1.1 2.2 2.3 4.3 1.3 2 3.6 5.9 5.2 8.7 1.5 2.7 3.9 7 5.3 9.5s3.6 6.2 4.9 8.2c1.2 2.1 2.3 4.2 2.3 4.8 0 .5.5 1 1 1 .6 0 1 .4 1 .9s2.3 4.9 5.1 9.8c2.9 4.8 6.3 10.8 7.7 13.3 1.4 2.5 3.3 5.7 4.3 7.2 1.1 1.4 1.9 3.3 1.9 4.1 0 .9.4 1.7.8 1.9.8.3 19.2 31.5 19.2 32.5 0 .4.6 1.4 1.4 2.2.8.9 2.6 3.8 4.1 6.6 1.4 2.7 3.5 6.4 4.5 8.1 1 1.8 6.3 11 11.8 20.5 5.5 9.6 12.9 22.5 16.6 28.7 3.6 6.2 6.6 11.7 6.6 12.3 0 .5.5.9 1 .9.6 0 1 .4 1 .9 0 .6 2.9 6 6.5 12.1s7.6 13 8.9 15.3c1.3 2.3 5.6 9.8 9.5 16.5 3.9 6.8 7.1 12.8 7.1 13.3s.4.9.9.9 1.1.8 1.4 1.7c.4 1 1.7 3.6 3 5.8 1.3 2.2 7.4 12.8 13.6 23.5 6.1 10.7 11.6 20.2 12.1 21 .6.8 1.3 2.3 1.6 3.2.4 1 .9 1.8 1.3 1.8.3 0 1.2 1.4 1.9 3l1.4 3h95.4c52.5 0 95.4-.3 95.4-.8 0-.4-.9-1.8-2-3.2-1.1-1.4-2-3.1-2-3.8 0-.6-.4-1.2-1-1.2-.5 0-1-.5-1-1.1 0-.6-2-4.5-4.5-8.6-2.5-4-4.5-7.8-4.5-8.3 0-.5-.6-1.5-1.3-2.2-.7-.7-2.7-3.8-4.4-6.8-1.6-3-3.9-7.1-5-9-4.4-7.6-20.3-35.2-27.8-48-4.3-7.4-9.2-16-10.8-19-1.6-3-3.6-6.2-4.3-7.1-.8-.8-1.4-1.8-1.4-2.2 0-.4-2.2-4.4-4.9-8.9-2.7-4.6-5.8-10-7-12.1-2.9-5.2-5-8.8-11.1-19.2-2.9-5-6.1-10.6-7.2-12.5-1.1-1.9-4.3-7.5-7.1-12.3-2.9-4.9-6.1-10.5-7.2-12.5-5.2-9.4-6-10.8-7.1-12.2-.6-.8-2.2-3.5-3.5-6-1.3-2.5-2.9-5.2-3.5-6-.6-.8-2.5-4-4.1-7-3.5-6.4-5.8-10.5-10.2-17.8-1.7-2.9-3.1-5.7-3.1-6.2 0-.6-.4-1-1-1-.5 0-1-.4-1-1 0-.5-2-4.4-4.5-8.6-2.5-4.1-4.5-8-4.5-8.5s-.4-.9-1-.9c-.5 0-1-.5-1-1.1 0-.5-2.9-6-6.5-12s-6.5-11.1-6.5-11.3c0-.2-1.8-3.4-4.1-7.1-2.2-3.7-4.9-8.2-5.8-9.9-1-1.7-7.7-13.4-14.9-25.9-7.3-12.6-13.2-23.2-13.2-23.7 0-.4-.4-1-.8-1.2-.7-.3-3.7-5.4-20.7-35.3-5.1-8.9-4.4-7.7-15.5-26.7-5.2-9-10.3-17.9-11.4-19.8-1-1.9-2.5-4.3-3.4-5.3-.8-.9-1.2-1.7-.9-1.7.4 0-.8-2.4-2.6-5.3-1.9-2.8-6-9.9-9.2-15.7-3.3-5.8-6.2-10.7-6.5-11-.3-.3-1.5-2.3-2.7-4.5-1.1-2.2-3-5.6-4.2-7.5-1.1-1.9-2.4-4.2-2.8-5-.4-.8-2.2-3.8-4-6.7-1.8-2.9-3.3-5.4-3.3-5.7 0-.3-1.8-3.5-4-7.1-2.2-3.6-4-7-4-7.5 0-.6-.5-1-1.2-1-.6 0-.8-.3-.5-.7.4-.3.1-1.3-.6-2.2-.8-.9-4.7-7.5-8.7-14.6-4.1-7.2-7.7-13.2-8.2-13.3-.4-.2-.8-1.2-.8-2.3 0-1-.4-1.9-1-1.9-.5 0-1-.5-1-1.1 0-.6-.6-1.6-1.2-2.3-1-1-2.9 1.6-9.3 12.8zM824.4 298.7c-1.5 2.7-4.2 7.3-6.1 10.4-1.8 3.1-3.3 6.1-3.3 6.7 0 .6-.4 1.2-.8 1.4-.4.1-2.2 2.8-3.9 5.8-4.3 7.7-17.2 29.9-19.4 33.5-1.1 1.6-2.2 3.7-2.6 4.5-.4.8-2.8 5.1-5.4 9.5-2.5 4.4-7.2 12.5-10.4 18s-7.7 13.1-10 17c-2.3 3.8-4.4 7.7-4.8 8.5-.4.8-1.6 2.9-2.6 4.6-1.1 1.8-5.3 9-9.4 16-4.1 7.1-8.8 15.2-10.5 18l-3 5.2 3 5.3c1.7 3 3.7 6.5 4.6 7.9.9 1.4 1.5 2.7 1.5 3 0 .3.8 1.7 1.8 3.2 1 1.4 1.9 3.1 1.9 3.7 0 .6.4 1.1.9 1.1s1.1.8 1.4 1.7c.4 1 1.8 3.8 3.3 6.3 10.1 17.1 12.4 21.1 12.4 21.6 0 .3 1.4 2.5 3 4.9 1.7 2.4 3 4.6 3 4.9 0 .3 4.5 8.2 10 17.6 5.5 9.5 10 17.4 10 17.6 0 .3 1.4 2.5 3 5 1.7 2.4 2.8 4.4 2.4 4.4-.4 0 0 .8.8 1.7.9 1 2.5 3.6 3.7 5.8 1.2 2.2 2.6 4.7 3.1 5.5 1.8 2.9 13 22.2 13 22.5 0 .2 1.8 3.3 4 6.9 2.2 3.6 4 7 4 7.6 0 .5.5 1 1 1 .6 0 1 .4 1 .9s6.2 11.6 13.8 24.7c7.6 13.2 14.9 25.9 16.3 28.4 1.3 2.5 2.7 4.6 3.2 4.8.4.2.7 1 .7 1.8s.5 1.4 1.1 1.4c.5 0 .8.4.5.9-.3.5.1 1.4.9 2.1.8.7 1.5 1.6 1.5 2.1s1.8 3.8 4 7.4c2.2 3.6 4 6.7 4 6.9 0 .2 4.3 7.6 9.5 16.5s9.5 16.4 9.5 16.8c0 .4.6 1.4 1.4 2.2.8.9 2.7 4 4.2 6.9 1.6 2.9 3.4 6.1 3.9 7 .6.9 3.7 6.3 6.9 12 3.2 5.6 6.2 10.5 6.7 10.8.5.3.7 1 .4 1.5-.4.5-.1.9.4.9.6 0 1.1.4 1.1.9s3.6 7 8 14.5c4.4 7.6 8 13.9 8 14.3 0 .3 1.2 2.4 2.8 4.7 1.5 2.2 3.4 5.4 4.2 7.1.8 1.6 1.7 3.2 2.1 3.5.5.4 5.6 9.3 9.9 17.2.8 1.5 5 8.8 9.3 16.3l7.8 13.5h191.1l-2-3.3c-1.1-1.7-4.3-7.3-7.1-12.2-2.8-5-5.6-9.7-6.1-10.5-.6-.8-1.4-2.4-2-3.5-.5-1.1-2.1-3.8-3.5-6s-3.2-5.4-4-7c-.9-1.7-2.1-3.9-2.8-4.9-4-6.4-7.7-12.6-7.7-13 0-.2-2.7-5-6-10.6s-6-10.5-6-11-.3-1-.7-1.2c-.5-.2-1.5-1.7-2.4-3.3-.9-1.7-3.4-6.2-5.7-10-2.2-3.9-4-7.4-4-7.9s-.4-1.2-.9-1.5c-.5-.3-3.6-5.3-6.8-11-3.3-5.8-7.5-13-9.3-16-1.8-3.1-3.5-6.3-3.9-7.1-.3-.8-1.2-2.2-1.8-3-.7-.8-2.7-4.2-4.4-7.4-1.7-3.3-3.5-6.4-4-7-.4-.6-2.2-3.6-3.8-6.6-1.6-3-4.4-8-6.2-11-1.8-3-3.6-6.2-4.1-7-4.6-8-23.2-40.1-28.8-49.9-4-6.8-7.2-12.6-7.2-12.9 0-.3-.6-1.3-1.4-2.1-.7-.9-2.4-3.6-3.7-6.1-1.3-2.5-2.9-5.2-3.5-6-.6-.8-2.5-4-4.1-7-1.7-3-8.1-14.3-14.3-25-6.2-10.7-12.4-21.5-13.8-24-1.3-2.5-3-5.2-3.7-6-.6-.8-1.4-2.2-1.7-3.1-.3-.8-3.3-6.2-6.7-11.8-3.4-5.7-6.1-10.7-6.1-11.1 0-.5-.6-1.5-1.3-2.2-1.6-1.6-11.7-19.7-11.7-20.9 0-.5-.3-.9-.7-.9-.5 0-1.3-1-1.9-2.3-.6-1.2-4.4-7.8-8.4-14.7-4-6.9-8.6-15-10.3-18-1.6-3-3.5-6.2-4.1-7-.6-.8-1.6-2.4-2.2-3.5-2.7-5-6.4-11.4-9.3-16.3-1.7-2.9-3.1-5.5-3.1-5.8 0-.3-.5-1-1-1.7-.6-.7-4.9-8-9.6-16.2-9.5-16.6-33.3-57.9-37.7-65.3-1.5-2.6-3.2-5.6-3.7-6.7-.6-1.1-1.6-2.9-2.2-4-4.1-6.3-7.8-12.6-7.8-13 0-.3-1.2-2.4-2.7-4.8-1.4-2.3-2.6-4.4-2.6-4.7 0-.3-1.5-2.8-3.4-5.7-1.8-2.9-3.3-5.7-3.3-6.3 0-.5-.4-1-1-1-.5 0-1-.7-1-1.5 0-2.8-1.9-1.5-4.6 3.2z"/></svg>