<?xml version="1.0" encoding="utf-8"?>
<!-- Generator: Adobe Illustrator 22.1.0, SVG Export Plug-In . SVG Version: 6.00 Build 0)  -->
<svg version="1.1" id="Capa_1" xmlns="http://www.w3.org/2000/svg" xmlns:xlink="http://www.w3.org/1999/xlink" x="0px" y="0px"
	 viewBox="0 0 100 64.5" style="enable-background:new 0 0 100 64.5;" xml:space="preserve">
<g>
	<path d="M30,2.5c2.8,0,5.3,0.2,7.6,0.7c2.3,0.5,4.2,1.3,5.9,2.4c1.6,1.1,2.9,2.6,3.8,4.5c0.9,1.8,1.3,4.1,1.3,6.9
		c0,2.9-0.7,5.4-2,7.4c-1.3,2-3.3,3.6-6,4.8c3.6,1,6.3,2.9,8,5.4c1.8,2.6,2.6,5.7,2.6,9.4c0,3-0.6,5.5-1.7,7.7
		c-1.1,2.2-2.7,3.9-4.6,5.3c-1.9,1.4-4.2,2.4-6.6,3c-2.5,0.7-5,1-7.6,1H2.5V2.5H30z M28.4,26.1c2.3,0,4.2-0.5,5.7-1.6
		c1.5-1.1,2.2-2.9,2.2-5.3c0-1.4-0.2-2.5-0.7-3.4c-0.5-0.9-1.2-1.6-2-2c-0.8-0.5-1.8-0.8-2.8-1c-1.1-0.2-2.2-0.3-3.3-0.3h-12v13.7
		H28.4z M29.1,51c1.3,0,2.5-0.1,3.6-0.4c1.2-0.3,2.2-0.7,3-1.2c0.9-0.6,1.6-1.3,2.1-2.3c0.5-1,0.8-2.3,0.8-3.8c0-3-0.8-5.2-2.5-6.4
		c-1.7-1.3-3.9-1.9-6.7-1.9h-14V51H29.1z"/>
	<path d="M69.8,50.8c1.7,1.7,4.3,2.6,7.5,2.6c2.3,0,4.4-0.6,6.1-1.8c1.7-1.2,2.7-2.4,3.1-3.8h10.2c-1.6,5.1-4.1,8.7-7.5,10.9
		c-3.4,2.2-7.5,3.3-12.3,3.3c-3.3,0-6.3-0.5-9-1.6c-2.7-1.1-4.9-2.6-6.8-4.6c-1.8-2-3.3-4.3-4.3-7.1c-1-2.7-1.5-5.7-1.5-9
		c0-3.2,0.5-6.1,1.6-8.9c1.1-2.7,2.5-5.1,4.4-7.1c1.9-2,4.2-3.6,6.9-4.7c2.7-1.1,5.6-1.7,8.8-1.7c3.6,0,6.7,0.7,9.4,2.1
		c2.7,1.4,4.9,3.3,6.6,5.6c1.7,2.3,3,5,3.7,8c0.8,3,1,6.1,0.8,9.4H66.9C66.9,45.9,68,49.1,69.8,50.8z M83.1,28.5
		c-1.4-1.5-3.7-2.4-6.6-2.4c-1.9,0-3.4,0.3-4.6,0.9c-1.2,0.6-2.2,1.4-2.9,2.3c-0.8,0.9-1.3,1.9-1.6,3c-0.3,1-0.5,2-0.5,2.8h18.9
		C85.5,32.3,84.5,30.1,83.1,28.5z"/>
	<rect x="64.5" y="6.4" width="23.7" height="5.8"/>
</g>
</svg>
