<?xml version="1.0" encoding="utf-8"?>
<!-- Generator: Adobe Illustrator 22.1.0, SVG Export Plug-In . SVG Version: 6.00 Build 0)  -->
<svg version="1.1" id="Layer_1" xmlns="http://www.w3.org/2000/svg" xmlns:xlink="http://www.w3.org/1999/xlink" x="0px" y="0px"
	 viewBox="0 0 100 100" enable-background="new 0 0 100 100" xml:space="preserve">
<path d="M50,2.5C23.8,2.5,2.5,23.8,2.5,50S23.8,97.5,50,97.5S97.5,76.2,97.5,50S76.2,2.5,50,2.5z M81.4,24.4
	c5.7,6.9,9.1,15.7,9.2,25.2c-1.3-0.3-14.7-3-28.2-1.3c-0.3-0.7-0.6-1.4-0.9-2.1c-0.8-2-1.8-4-2.7-5.9C73.7,34.3,80.5,25.5,81.4,24.4
	z M50,9.5c10.3,0,19.7,3.9,26.9,10.2c-0.7,1-6.9,9.2-21.3,14.6c-6.6-12.2-14-22.2-15.1-23.8C43.5,9.9,46.7,9.5,50,9.5z M32.7,13.3
	c1.1,1.4,8.3,11.5,15,23.4c-19,5-35.7,4.9-37.5,4.9C12.9,29.1,21.4,18.7,32.7,13.3z M9.4,50.1c0-0.4,0-0.8,0-1.2
	c1.8,0.1,21.4,0.3,41.7-5.8c1.2,2.3,2.3,4.6,3.3,6.9c-0.5,0.2-1.1,0.3-1.6,0.5c-20.9,6.7-32,25.2-33,26.7C13.4,70,9.4,60.5,9.4,50.1
	z M50,90.6c-9.4,0-18-3.2-24.9-8.6c0.7-1.5,9-17.4,31.8-25.3c0.1-0.1,0.2-0.1,0.3-0.1c5.7,14.8,8,27.2,8.7,30.8
	C61,89.5,55.6,90.6,50,90.6z M72.6,83.6c-0.4-2.5-2.6-14.3-7.9-28.9c12.7-2,23.9,1.3,25.2,1.8C88.2,67.8,81.7,77.5,72.6,83.6z"/>
</svg>
