<svg xmlns="http://www.w3.org/2000/svg" viewBox="0 0 303.8 171.91"><defs><style>.a{fill:#fff;}</style></defs><title>energyumpire</title><path class="a" d="M0,170.94l.06-.48c.13-.53.25-1.05.37-1.58l.14-.83c.15-.59.29-1.19.43-1.78,1.43-5.15,2.64-10.37,4.35-15.42A77.25,77.25,0,0,1,17.7,127.68a56.67,56.67,0,0,1,32.64-20.52,94.76,94.76,0,0,1,26.45-2.11,228.51,228.51,0,0,1,43.05,6.69c17.77,4.32,35.48,8.92,53.22,13.39a405.88,405.88,0,0,0,45.81,9.2,173.86,173.86,0,0,0,31.35,1.53c14.94-.73,29.32-3.78,42.59-11,3.15-1.71,6.12-3.76,9.17-5.66a4.86,4.86,0,0,1,1.82-.83,5.42,5.42,0,0,1-.48.89,97.66,97.66,0,0,1-65.6,37.35,161,161,0,0,1-38.75.11c-18-1.89-35.61-5.86-53.2-10-14.47-3.4-28.91-6.9-43.44-10-13.45-2.91-27.06-4.89-40.89-4.66-9.41.16-18.62,1.49-27.43,5A56.17,56.17,0,0,0,7.28,159.55C4.74,163.5,2.7,167.78.44,171.91Z"/><path d="M211.21,0H217a2.74,2.74,0,0,0,.54.21A23.85,23.85,0,0,1,228.38,4a18.49,18.49,0,0,1,4.77,4.42A28.17,28.17,0,0,1,237,16.16c2.92,10.11,5.79,20.26,8.18,30.51,2.08,9,3.69,18.08,5.14,27.18,1.23,7.69,2,15.45,2.83,23.19.61,5.84,1,11.7,1.41,17.56.17,2.4.31,2.8,2.6,3.72,6.65,2.66,13.59,3.07,20.63,2.71,2-.1,3.91-.33,6.24-.54-.93.76-1.53,1.32-2.21,1.79a53.32,53.32,0,0,1-14.47,7.09,89.61,89.61,0,0,1-33.51,4c-9.42-.65-18.84-1.85-28.18-3.28-7.85-1.2-15.65-2.83-23.36-4.72-14.23-3.49-28.39-7.27-42.56-11-13.33-3.51-26.75-6.62-40.34-8.9a154.34,154.34,0,0,0-27.91-2.31,124.53,124.53,0,0,0-19.1,1.51,51.36,51.36,0,0,0-21.64,8.58c-1.51,1.08-3,2.25-4.47,3.38l-.37-.67v-1a45.48,45.48,0,0,1,12.26-12.32,5.36,5.36,0,0,0,2.54-4c.08-.67.2-1.34.33-2,2.26-12.33,4.32-24.7,6.84-37A369.89,369.89,0,0,1,61,11.89,26.93,26.93,0,0,1,63.13,7C65.39,3.21,69,1.83,73.2,1.59c2.91-.17,5.56.84,8.31,1.36A42.09,42.09,0,0,1,88,4.7a50.55,50.55,0,0,1,5.53,2.6c3.84,1.93,7.58,4.08,11.5,5.83a44.39,44.39,0,0,0,18.08,3.61,106.83,106.83,0,0,0,26-3.27c7.21-1.76,14.39-3.62,21.6-5.41,7.84-1.95,15.67-4,23.56-5.75,4.39-1,8.91-1.37,13.37-2C208.77.15,210,.1,211.21,0Z"/></svg>