<svg xmlns="http://www.w3.org/2000/svg" xmlns:xlink="http://www.w3.org/1999/xlink" viewBox="0 0 303.29 94"><defs><style>.a{fill:none;}.b{clip-path:url(#a);}.c{clip-path:url(#c);}.d{fill:#fff;}</style><clipPath id="a" transform="translate(-2.34 -1)"><rect class="a" x="218" y="3" width="90" height="90"/></clipPath><clipPath id="c" transform="translate(-2.34 -1)"><rect class="a" width="100" height="100"/></clipPath></defs><title>icons</title><g class="b"><g class="b"><path d="M262.88,91.05a42.76,42.76,0,0,1-33.25-69.63,2.37,2.37,0,1,1,3.68,3,38,38,0,1,0,29.57-14.12,2.37,2.37,0,1,1,0-4.73,42.75,42.75,0,0,1,0,85.5M278.54,64a2.37,2.37,0,0,0,0-3.34L265,47.12V17a2.36,2.36,0,1,0-4.72,0v32.1L275.19,64a2.38,2.38,0,0,0,3.35,0m-38.07-31.6a2,2,0,0,0,2-2l0-17.29a2,2,0,0,0-2-2h0l-17.29,0a2,2,0,0,0-2,2,2,2,0,0,0,2,2h0l15.32,0,0,15.32a2,2,0,0,0,2,2Z" transform="translate(-2.34 -1)"/></g></g><g class="c"><g class="c"><path d="M77.58,48.15H22.09a19.76,19.76,0,0,1,0-39.51H77.58a19.76,19.76,0,1,1,0,39.51M22.09,13.68a14.72,14.72,0,0,0,0,29.43H77.58a14.72,14.72,0,0,0,0-29.43Zm.42,26.06A11.35,11.35,0,1,0,11.16,28.39,11.35,11.35,0,0,0,22.51,39.74m-.42,13.77H77.58a19.76,19.76,0,1,1,0,39.52H22.09a19.76,19.76,0,0,1,0-39.52M77.58,88a14.71,14.71,0,1,0,0-29.42H22.09a14.71,14.71,0,0,0,0,29.42Zm-.42-26.06A11.35,11.35,0,1,0,88.51,73.27,11.35,11.35,0,0,0,77.16,61.92" transform="translate(-2.34 -1)"/></g></g><path class="d" d="M191.72,20,174.79,3.1A7.17,7.17,0,0,0,169.71,1H133.24a9.06,9.06,0,0,0-9.06,9.06V85.94A9.06,9.06,0,0,0,133.24,95h51.52a9.06,9.06,0,0,0,9.06-9.06V25.11A7.18,7.18,0,0,0,191.72,20Zm-4.11,3H176.36A5.36,5.36,0,0,1,171,17.64V6.43a2.52,2.52,0,0,1,.25.21Zm-2.85,67H133.24a4.06,4.06,0,0,1-4.06-4.06V10.06A4.06,4.06,0,0,1,133.24,6H166V17.64A10.37,10.37,0,0,0,176.36,28h12.46V85.94A4.06,4.06,0,0,1,184.76,90ZM155,43.84a5.42,5.42,0,1,1,5.42-5.42A5.42,5.42,0,0,1,155,43.84ZM155,36a2.42,2.42,0,1,0,2.42,2.42A2.43,2.43,0,0,0,155,36ZM182,62.06,166.1,42.46a1.49,1.49,0,0,0-2.33,0l-7.86,9.71L151.7,47a1.5,1.5,0,0,0-2.32,0l-12.32,15a1.5,1.5,0,0,0,1.16,2.45h42.56A1.5,1.5,0,0,0,182,62.06ZM150.54,50.35l3.45,4.2-1.75,2.16-3.87,4.79h-7Zm1.69,11.15,4.86-6h0l7.84-9.7L177.64,61.5Z" transform="translate(-2.34 -1)"/></svg>