<?xml version="1.0" encoding="utf-8"?>
<!-- Generator: Adobe Illustrator 22.1.0, SVG Export Plug-In . SVG Version: 6.00 Build 0)  -->
<svg version="1.1" id="Layer_1" xmlns="http://www.w3.org/2000/svg" xmlns:xlink="http://www.w3.org/1999/xlink" x="0px" y="0px"
	 viewBox="0 0 100 100" enable-background="new 0 0 100 100" xml:space="preserve">
<g>
	<path d="M35.5,34.3c6.7,0,13.3,0,20.1,0c0,2.7,0,5.3,0,8.3c0.4-0.3,0.6-0.4,0.7-0.6c5.6-8.2,13.5-10.4,22.8-8.7
		c9,1.6,14.5,7.2,16.9,15.9c0.9,3.1,1.4,6.4,1.4,9.6c0.2,11.9,0.1,23.8,0.1,35.8c0,0.2,0,0.5-0.1,0.8c-6.7,0-13.4,0-20.3,0
		c0-0.6,0-1.2,0-1.8c0-10.2,0-20.4,0-30.6c0-2.2-0.2-4.5-0.7-6.6c-1.9-7.7-10.9-10.2-16.7-4.8c-2.8,2.6-3.9,5.8-3.9,9.6
		c0,10.8,0,21.6,0,32.3c0,0.6,0,1.2,0,1.9c-6.8,0-13.4,0-20.2,0C35.5,75,35.5,54.7,35.5,34.3z"/>
	<path d="M24,95.4c-6.8,0-13.5,0-20.2,0c0-20.4,0-40.7,0-61.1c6.8,0,13.5,0,20.2,0C24,54.7,24,75,24,95.4z"/>
	<path d="M14.2,25.8c-5.6,0-9.6-2.7-11.1-7.1C1.6,14.4,3,9.7,6.5,7C10.4,4,16.9,3.8,21,6.6c6,4.1,5.9,13.5-0.3,17.4
		C18.6,25.3,16.3,25.9,14.2,25.8z"/>
</g>
</svg>
