<svg xmlns="http://www.w3.org/2000/svg" viewBox="0 0 203.74 130.87"><title>phantomface</title><path d="M72.35,36.26A36.18,36.18,0,1,1,36,0,36.12,36.12,0,0,1,72.35,36.26Zm-6.92.06A29.28,29.28,0,1,0,36.08,65.5,29.31,29.31,0,0,0,65.43,36.32Z"/><path d="M131.44,36.13a36.15,36.15,0,1,1,36.09,36.45A36.26,36.26,0,0,1,131.44,36.13ZM167.53,65.5a29.23,29.23,0,1,0-29.21-29.38A29.22,29.22,0,0,0,167.53,65.5Z"/><path d="M69.13,116.28c.72-.81,1.22-1.42,1.78-2,.78-.78,1.61-1.53,2.63-2.49,20.19,16.28,40.49,16.54,60.86.05.65.53,1.3,1,1.84,1.51.9.89,1.73,1.85,2.57,2.77C123.23,134.29,89,137.16,69.13,116.28Z"/></svg>